<mxfile host="Electron" modified="2024-04-15T06:49:36.167Z" agent="Mozilla/5.0 (Windows NT 10.0; Win64; x64) AppleWebKit/537.36 (KHTML, like Gecko) draw.io/22.0.2 Chrome/114.0.5735.289 Electron/25.8.4 Safari/537.36" etag="Yj4SPScHxi81ESeRfIxa" version="22.0.2" type="device">
  <diagram name="第 1 页" id="TXvhX6VAukvptAocqNGN">
    <mxGraphModel dx="2375" dy="902" grid="1" gridSize="10" guides="1" tooltips="1" connect="1" arrows="1" fold="1" page="1" pageScale="1" pageWidth="827" pageHeight="1169" math="0" shadow="0">
      <root>
        <mxCell id="0" />
        <mxCell id="1" parent="0" />
        <mxCell id="mOLojI1wZqAIwk1azhFG-70" value="" style="rounded=0;whiteSpace=wrap;html=1;fontStyle=1" parent="1" vertex="1">
          <mxGeometry x="-80" y="122" width="570" height="188" as="geometry" />
        </mxCell>
        <mxCell id="mOLojI1wZqAIwk1azhFG-17" value="" style="rounded=0;whiteSpace=wrap;html=1;strokeColor=default;fontStyle=1" parent="1" vertex="1">
          <mxGeometry x="30" y="74.25" width="450" height="30" as="geometry" />
        </mxCell>
        <mxCell id="U4DfO-0JBwhDxarbV-OK-16" value="&lt;font style=&quot;font-size: 15px;&quot;&gt;Model A&lt;/font&gt;" style="text;html=1;strokeColor=none;fillColor=none;align=center;verticalAlign=middle;whiteSpace=wrap;rounded=0;fontStyle=1" parent="1" vertex="1">
          <mxGeometry x="-80" y="137.25" width="100" height="30" as="geometry" />
        </mxCell>
        <mxCell id="wY_aJ2qnTKB5tE3JuGZU-3" value="&lt;font style=&quot;font-size: 15px;&quot;&gt;Model B&lt;/font&gt;" style="text;html=1;strokeColor=none;fillColor=none;align=center;verticalAlign=middle;whiteSpace=wrap;rounded=0;fontStyle=1" parent="1" vertex="1">
          <mxGeometry x="-80" y="197" width="100" height="30" as="geometry" />
        </mxCell>
        <mxCell id="wY_aJ2qnTKB5tE3JuGZU-8" value="" style="rounded=0;whiteSpace=wrap;html=1;dashed=1;fontStyle=1" parent="1" vertex="1">
          <mxGeometry x="30" y="195" width="450" height="34" as="geometry" />
        </mxCell>
        <mxCell id="wY_aJ2qnTKB5tE3JuGZU-9" value="" style="rounded=0;whiteSpace=wrap;html=1;dashed=1;fontStyle=1" parent="1" vertex="1">
          <mxGeometry x="30" y="135" width="450" height="34" as="geometry" />
        </mxCell>
        <mxCell id="wY_aJ2qnTKB5tE3JuGZU-10" value="&lt;font style=&quot;font-size: 15px;&quot;&gt;A1&lt;/font&gt;" style="rounded=0;whiteSpace=wrap;html=1;fillColor=#fff2cc;strokeColor=#d6b656;fontStyle=1" parent="1" vertex="1">
          <mxGeometry x="50" y="142" width="40" height="20" as="geometry" />
        </mxCell>
        <mxCell id="wY_aJ2qnTKB5tE3JuGZU-11" value="&lt;font style=&quot;font-size: 15px;&quot;&gt;A2&lt;/font&gt;" style="rounded=0;whiteSpace=wrap;html=1;fillColor=#fff2cc;strokeColor=#d6b656;fontStyle=1" parent="1" vertex="1">
          <mxGeometry x="130" y="142" width="40" height="20" as="geometry" />
        </mxCell>
        <mxCell id="wY_aJ2qnTKB5tE3JuGZU-12" value="&lt;font style=&quot;font-size: 15px;&quot;&gt;A3&lt;/font&gt;" style="rounded=0;whiteSpace=wrap;html=1;fillColor=#fff2cc;strokeColor=#d6b656;fontStyle=1" parent="1" vertex="1">
          <mxGeometry x="230" y="142.25" width="40" height="20" as="geometry" />
        </mxCell>
        <mxCell id="wY_aJ2qnTKB5tE3JuGZU-13" value="&lt;font style=&quot;font-size: 15px;&quot;&gt;A4&lt;/font&gt;" style="rounded=0;whiteSpace=wrap;html=1;fillColor=#fff2cc;strokeColor=#d6b656;fontStyle=1" parent="1" vertex="1">
          <mxGeometry x="320" y="142.25" width="60" height="20" as="geometry" />
        </mxCell>
        <mxCell id="wY_aJ2qnTKB5tE3JuGZU-14" value="&lt;font style=&quot;font-size: 15px;&quot;&gt;B1&lt;/font&gt;" style="rounded=0;whiteSpace=wrap;html=1;fillColor=#dae8fc;strokeColor=#6c8ebf;fontStyle=1" parent="1" vertex="1">
          <mxGeometry x="50" y="203.13" width="30" height="20" as="geometry" />
        </mxCell>
        <mxCell id="wY_aJ2qnTKB5tE3JuGZU-15" value="&lt;font style=&quot;font-size: 15px;&quot;&gt;B2&lt;/font&gt;" style="rounded=0;whiteSpace=wrap;html=1;fillColor=#dae8fc;strokeColor=#6c8ebf;fontStyle=1" parent="1" vertex="1">
          <mxGeometry x="110" y="203.13" width="30" height="20" as="geometry" />
        </mxCell>
        <mxCell id="wY_aJ2qnTKB5tE3JuGZU-16" value="&lt;font style=&quot;font-size: 15px;&quot;&gt;B3&lt;/font&gt;" style="rounded=0;whiteSpace=wrap;html=1;fillColor=#dae8fc;strokeColor=#6c8ebf;fontStyle=1" parent="1" vertex="1">
          <mxGeometry x="190" y="203.13" width="60" height="20" as="geometry" />
        </mxCell>
        <mxCell id="wY_aJ2qnTKB5tE3JuGZU-17" value="&lt;font style=&quot;font-size: 15px;&quot;&gt;B4&lt;/font&gt;" style="rounded=0;whiteSpace=wrap;html=1;fillColor=#dae8fc;strokeColor=#6c8ebf;fontStyle=1" parent="1" vertex="1">
          <mxGeometry x="300" y="203.13" width="50" height="20" as="geometry" />
        </mxCell>
        <mxCell id="mOLojI1wZqAIwk1azhFG-1" value="&lt;font style=&quot;font-size: 15px;&quot;&gt;A5&lt;/font&gt;" style="rounded=0;whiteSpace=wrap;html=1;fillColor=#fff2cc;strokeColor=#d6b656;fontStyle=1" parent="1" vertex="1">
          <mxGeometry x="414" y="142.25" width="30" height="20" as="geometry" />
        </mxCell>
        <mxCell id="mOLojI1wZqAIwk1azhFG-2" value="&lt;font style=&quot;font-size: 15px;&quot;&gt;A6&lt;/font&gt;" style="rounded=0;whiteSpace=wrap;html=1;fillColor=#fff2cc;strokeColor=#d6b656;fontStyle=1" parent="1" vertex="1">
          <mxGeometry x="444" y="142.25" width="30" height="20" as="geometry" />
        </mxCell>
        <mxCell id="mOLojI1wZqAIwk1azhFG-4" value="" style="rounded=0;whiteSpace=wrap;html=1;fillColor=#fff2cc;strokeColor=#d6b656;shadow=0;glass=0;fillStyle=zigzag-line;fontStyle=1" parent="1" vertex="1">
          <mxGeometry x="90" y="142.25" width="40" height="20" as="geometry" />
        </mxCell>
        <mxCell id="mOLojI1wZqAIwk1azhFG-5" value="" style="rounded=0;whiteSpace=wrap;html=1;fillColor=#fff2cc;strokeColor=#d6b656;fillStyle=zigzag-line;fontStyle=1" parent="1" vertex="1">
          <mxGeometry x="170" y="142.25" width="60" height="20" as="geometry" />
        </mxCell>
        <mxCell id="mOLojI1wZqAIwk1azhFG-6" value="" style="rounded=0;whiteSpace=wrap;html=1;fillColor=#fff2cc;strokeColor=#d6b656;fillStyle=zigzag-line;fontStyle=1" parent="1" vertex="1">
          <mxGeometry x="270" y="142.25" width="50" height="20" as="geometry" />
        </mxCell>
        <mxCell id="mOLojI1wZqAIwk1azhFG-7" value="" style="rounded=0;whiteSpace=wrap;html=1;fillColor=#fff2cc;strokeColor=#d6b656;fillStyle=zigzag-line;fontStyle=1" parent="1" vertex="1">
          <mxGeometry x="380" y="142.25" width="34" height="20" as="geometry" />
        </mxCell>
        <mxCell id="mOLojI1wZqAIwk1azhFG-8" value="" style="rounded=0;whiteSpace=wrap;html=1;fillColor=#dae8fc;strokeColor=#6c8ebf;fillStyle=zigzag-line;fontStyle=1" parent="1" vertex="1">
          <mxGeometry x="80" y="203.13" width="30" height="20" as="geometry" />
        </mxCell>
        <mxCell id="mOLojI1wZqAIwk1azhFG-9" value="" style="rounded=0;whiteSpace=wrap;html=1;fillColor=#dae8fc;strokeColor=#6c8ebf;fillStyle=zigzag-line;fontStyle=1" parent="1" vertex="1">
          <mxGeometry x="140" y="203.13" width="50" height="20" as="geometry" />
        </mxCell>
        <mxCell id="mOLojI1wZqAIwk1azhFG-10" value="" style="rounded=0;whiteSpace=wrap;html=1;fillColor=#dae8fc;strokeColor=#6c8ebf;fillStyle=zigzag-line;fontStyle=1" parent="1" vertex="1">
          <mxGeometry x="350" y="203.13" width="60" height="20" as="geometry" />
        </mxCell>
        <mxCell id="mOLojI1wZqAIwk1azhFG-11" value="" style="rounded=0;whiteSpace=wrap;html=1;fillColor=#dae8fc;strokeColor=#6c8ebf;fillStyle=zigzag-line;fontStyle=1" parent="1" vertex="1">
          <mxGeometry x="250" y="203.13" width="50" height="20" as="geometry" />
        </mxCell>
        <mxCell id="mOLojI1wZqAIwk1azhFG-13" value="A1" style="rounded=0;whiteSpace=wrap;html=1;fillColor=#fff2cc;strokeColor=#d6b656;shadow=0;glass=0;fillStyle=zigzag-line;fontStyle=1" parent="1" vertex="1">
          <mxGeometry x="-46" y="16" width="30" height="20" as="geometry" />
        </mxCell>
        <mxCell id="mOLojI1wZqAIwk1azhFG-14" value="A1" style="rounded=0;whiteSpace=wrap;html=1;fillColor=#fff2cc;strokeColor=#d6b656;fontStyle=1" parent="1" vertex="1">
          <mxGeometry x="-208" y="16" width="30" height="20" as="geometry" />
        </mxCell>
        <mxCell id="mOLojI1wZqAIwk1azhFG-15" value="&lt;font style=&quot;font-size: 15px;&quot;&gt;Concurrent&lt;br&gt;Section&lt;br&gt;&lt;/font&gt;" style="text;html=1;strokeColor=none;fillColor=none;align=center;verticalAlign=middle;whiteSpace=wrap;rounded=0;fontStyle=1" parent="1" vertex="1">
          <mxGeometry x="246.57" y="20" width="117.75" height="30" as="geometry" />
        </mxCell>
        <mxCell id="mOLojI1wZqAIwk1azhFG-16" value="&lt;font style=&quot;font-size: 15px;&quot;&gt;Operator&lt;/font&gt;" style="text;html=1;strokeColor=none;fillColor=none;align=center;verticalAlign=middle;whiteSpace=wrap;rounded=0;fontStyle=1" parent="1" vertex="1">
          <mxGeometry x="-178" y="11" width="100" height="30" as="geometry" />
        </mxCell>
        <mxCell id="mOLojI1wZqAIwk1azhFG-20" value="" style="rounded=0;whiteSpace=wrap;html=1;strokeColor=none;fillColor=#B5B5B5;fontStyle=1" parent="1" vertex="1">
          <mxGeometry x="30" y="74.25" width="340" height="30" as="geometry" />
        </mxCell>
        <mxCell id="mOLojI1wZqAIwk1azhFG-24" value="" style="shape=card;whiteSpace=wrap;html=1;size=20;rotation=90;strokeColor=none;fillColor=#B5B5B5;fontStyle=1" parent="1" vertex="1">
          <mxGeometry x="363" y="79.25" width="30" height="20" as="geometry" />
        </mxCell>
        <mxCell id="mOLojI1wZqAIwk1azhFG-28" value="" style="shape=card;whiteSpace=wrap;html=1;size=160;rotation=90;strokeColor=none;fillColor=#B5B5B5;fontStyle=1" parent="1" vertex="1">
          <mxGeometry x="424.94" y="50" width="13.88" height="94.25" as="geometry" />
        </mxCell>
        <mxCell id="mOLojI1wZqAIwk1azhFG-69" style="edgeStyle=orthogonalEdgeStyle;rounded=0;orthogonalLoop=1;jettySize=auto;html=1;exitX=0;exitY=1;exitDx=0;exitDy=0;entryX=0;entryY=0.5;entryDx=0;entryDy=0;fontStyle=1" parent="1" source="mOLojI1wZqAIwk1azhFG-59" target="wY_aJ2qnTKB5tE3JuGZU-14" edge="1">
          <mxGeometry relative="1" as="geometry">
            <Array as="points">
              <mxPoint x="35" y="212.25" />
            </Array>
          </mxGeometry>
        </mxCell>
        <mxCell id="Sp8-4SAEpWz_oNTrS-JI-114" style="edgeStyle=orthogonalEdgeStyle;rounded=0;orthogonalLoop=1;jettySize=auto;html=1;exitX=0;exitY=1;exitDx=0;exitDy=0;entryX=0;entryY=0.5;entryDx=0;entryDy=0;fontStyle=1" parent="1" source="mOLojI1wZqAIwk1azhFG-59" target="wY_aJ2qnTKB5tE3JuGZU-10" edge="1">
          <mxGeometry relative="1" as="geometry">
            <Array as="points">
              <mxPoint x="35" y="152.25" />
            </Array>
          </mxGeometry>
        </mxCell>
        <mxCell id="mOLojI1wZqAIwk1azhFG-59" value="&lt;font style=&quot;font-size: 15px;&quot;&gt;Resource Contention&lt;/font&gt;" style="text;html=1;strokeColor=none;fillColor=none;align=center;verticalAlign=middle;whiteSpace=wrap;rounded=0;fontStyle=1" parent="1" vertex="1">
          <mxGeometry x="44" y="74.25" width="60" height="30" as="geometry" />
        </mxCell>
        <mxCell id="mOLojI1wZqAIwk1azhFG-60" value="&lt;font style=&quot;font-size: 15px;&quot;&gt;Low Utilization&lt;/font&gt;" style="text;html=1;strokeColor=none;fillColor=none;align=center;verticalAlign=middle;whiteSpace=wrap;rounded=0;fontStyle=1" parent="1" vertex="1">
          <mxGeometry x="400" y="74.31" width="60" height="30" as="geometry" />
        </mxCell>
        <mxCell id="mOLojI1wZqAIwk1azhFG-63" value="&lt;font style=&quot;font-size: 15px;&quot;&gt;100%&lt;br&gt;&lt;br&gt;0%&amp;nbsp; &amp;nbsp;&lt;/font&gt;" style="text;html=1;strokeColor=none;fillColor=none;align=center;verticalAlign=middle;whiteSpace=wrap;rounded=0;fontStyle=1" parent="1" vertex="1">
          <mxGeometry x="490" y="74.31" width="60" height="30" as="geometry" />
        </mxCell>
        <mxCell id="mOLojI1wZqAIwk1azhFG-64" value="&lt;font style=&quot;font-size: 15px;&quot;&gt;GPU Utilization&lt;/font&gt;" style="text;html=1;strokeColor=none;fillColor=none;align=center;verticalAlign=middle;whiteSpace=wrap;rounded=0;fontStyle=1" parent="1" vertex="1">
          <mxGeometry x="-60" y="74.25" width="80" height="30" as="geometry" />
        </mxCell>
        <mxCell id="mOLojI1wZqAIwk1azhFG-73" value="&lt;font style=&quot;font-size: 15px;&quot;&gt;Concurrent Inference&lt;/font&gt;" style="text;html=1;strokeColor=none;fillColor=none;align=center;verticalAlign=middle;whiteSpace=wrap;rounded=0;rotation=0;fontStyle=1" parent="1" vertex="1">
          <mxGeometry x="-205" y="194" width="90" height="30" as="geometry" />
        </mxCell>
        <mxCell id="aFEut-Nw3Kqnz-RKJ25N-1" value="" style="rounded=0;whiteSpace=wrap;html=1;fontStyle=1" parent="1" vertex="1">
          <mxGeometry x="-80" y="370.80999999999995" width="680" height="186.19" as="geometry" />
        </mxCell>
        <mxCell id="aFEut-Nw3Kqnz-RKJ25N-2" value="" style="rounded=0;whiteSpace=wrap;html=1;strokeColor=default;fontStyle=1;fillColor=none;" parent="1" vertex="1">
          <mxGeometry x="30" y="323.05999999999995" width="570" height="30" as="geometry" />
        </mxCell>
        <mxCell id="aFEut-Nw3Kqnz-RKJ25N-3" value="&lt;font style=&quot;font-size: 15px;&quot;&gt;Model A&lt;/font&gt;" style="text;html=1;strokeColor=none;fillColor=none;align=center;verticalAlign=middle;whiteSpace=wrap;rounded=0;fontStyle=1" parent="1" vertex="1">
          <mxGeometry x="-80" y="386.05999999999995" width="100" height="30" as="geometry" />
        </mxCell>
        <mxCell id="aFEut-Nw3Kqnz-RKJ25N-4" value="&lt;font style=&quot;font-size: 15px;&quot;&gt;Model B&lt;/font&gt;" style="text;html=1;strokeColor=none;fillColor=none;align=center;verticalAlign=middle;whiteSpace=wrap;rounded=0;fontStyle=1" parent="1" vertex="1">
          <mxGeometry x="-80" y="445.80999999999995" width="100" height="30" as="geometry" />
        </mxCell>
        <mxCell id="aFEut-Nw3Kqnz-RKJ25N-5" value="" style="rounded=0;whiteSpace=wrap;html=1;dashed=1;fontStyle=1" parent="1" vertex="1">
          <mxGeometry x="30" y="443.80999999999995" width="560" height="34" as="geometry" />
        </mxCell>
        <mxCell id="aFEut-Nw3Kqnz-RKJ25N-6" value="" style="rounded=0;whiteSpace=wrap;html=1;dashed=1;fontStyle=1" parent="1" vertex="1">
          <mxGeometry x="30" y="383.80999999999995" width="480" height="34" as="geometry" />
        </mxCell>
        <mxCell id="aFEut-Nw3Kqnz-RKJ25N-7" value="&lt;font style=&quot;font-size: 15px;&quot;&gt;A1&lt;/font&gt;" style="rounded=0;whiteSpace=wrap;html=1;fillColor=#fff2cc;strokeColor=#d6b656;fontStyle=1" parent="1" vertex="1">
          <mxGeometry x="50" y="390.80999999999995" width="40" height="20" as="geometry" />
        </mxCell>
        <mxCell id="aFEut-Nw3Kqnz-RKJ25N-8" value="&lt;font style=&quot;font-size: 15px;&quot;&gt;A2&lt;/font&gt;" style="rounded=0;whiteSpace=wrap;html=1;fillColor=#fff2cc;strokeColor=#d6b656;fontStyle=1" parent="1" vertex="1">
          <mxGeometry x="120" y="390.80999999999995" width="40" height="20" as="geometry" />
        </mxCell>
        <mxCell id="aFEut-Nw3Kqnz-RKJ25N-9" value="&lt;font style=&quot;font-size: 15px;&quot;&gt;A3&lt;/font&gt;" style="rounded=0;whiteSpace=wrap;html=1;fillColor=#fff2cc;strokeColor=#d6b656;fontStyle=1" parent="1" vertex="1">
          <mxGeometry x="190" y="391.05999999999995" width="40" height="20" as="geometry" />
        </mxCell>
        <mxCell id="aFEut-Nw3Kqnz-RKJ25N-10" value="&lt;font style=&quot;font-size: 15px;&quot;&gt;A4&lt;/font&gt;" style="rounded=0;whiteSpace=wrap;html=1;fillColor=#fff2cc;strokeColor=#d6b656;fontStyle=1" parent="1" vertex="1">
          <mxGeometry x="300" y="391.05999999999995" width="60" height="20" as="geometry" />
        </mxCell>
        <mxCell id="aFEut-Nw3Kqnz-RKJ25N-11" value="&lt;font style=&quot;font-size: 15px;&quot;&gt;B1&lt;/font&gt;" style="rounded=0;whiteSpace=wrap;html=1;fillColor=#dae8fc;strokeColor=#6c8ebf;fontStyle=1" parent="1" vertex="1">
          <mxGeometry x="300" y="450.80999999999995" width="30" height="20" as="geometry" />
        </mxCell>
        <mxCell id="aFEut-Nw3Kqnz-RKJ25N-12" value="&lt;font style=&quot;font-size: 15px;&quot;&gt;B2&lt;/font&gt;" style="rounded=0;whiteSpace=wrap;html=1;fillColor=#dae8fc;strokeColor=#6c8ebf;fontStyle=1" parent="1" vertex="1">
          <mxGeometry x="397.5" y="450.80999999999995" width="30" height="20" as="geometry" />
        </mxCell>
        <mxCell id="aFEut-Nw3Kqnz-RKJ25N-13" value="&lt;font style=&quot;font-size: 15px;&quot;&gt;B3&lt;/font&gt;" style="rounded=0;whiteSpace=wrap;html=1;fillColor=#dae8fc;strokeColor=#6c8ebf;fontStyle=1" parent="1" vertex="1">
          <mxGeometry x="447.32" y="450.80999999999995" width="60" height="20" as="geometry" />
        </mxCell>
        <mxCell id="aFEut-Nw3Kqnz-RKJ25N-14" value="&lt;font style=&quot;font-size: 15px;&quot;&gt;B4&lt;/font&gt;" style="rounded=0;whiteSpace=wrap;html=1;fillColor=#dae8fc;strokeColor=#6c8ebf;fontStyle=1" parent="1" vertex="1">
          <mxGeometry x="537.3199999999999" y="450.80999999999995" width="50" height="20" as="geometry" />
        </mxCell>
        <mxCell id="aFEut-Nw3Kqnz-RKJ25N-15" value="&lt;font style=&quot;font-size: 15px;&quot;&gt;A5&lt;/font&gt;" style="rounded=0;whiteSpace=wrap;html=1;fillColor=#fff2cc;strokeColor=#d6b656;fontStyle=1" parent="1" vertex="1">
          <mxGeometry x="380" y="390.80999999999995" width="30" height="20" as="geometry" />
        </mxCell>
        <mxCell id="aFEut-Nw3Kqnz-RKJ25N-16" value="&lt;font style=&quot;font-size: 15px;&quot;&gt;A6&lt;/font&gt;" style="rounded=0;whiteSpace=wrap;html=1;fillColor=#fff2cc;strokeColor=#d6b656;fontStyle=1" parent="1" vertex="1">
          <mxGeometry x="430" y="391.05999999999995" width="30" height="20" as="geometry" />
        </mxCell>
        <mxCell id="aFEut-Nw3Kqnz-RKJ25N-17" value="" style="rounded=0;whiteSpace=wrap;html=1;fillColor=#fff2cc;strokeColor=#d6b656;shadow=0;glass=0;fillStyle=zigzag-line;fontStyle=1" parent="1" vertex="1">
          <mxGeometry x="90" y="391.05999999999995" width="30" height="20" as="geometry" />
        </mxCell>
        <mxCell id="aFEut-Nw3Kqnz-RKJ25N-18" value="" style="rounded=0;whiteSpace=wrap;html=1;fillColor=#fff2cc;strokeColor=#d6b656;fillStyle=zigzag-line;fontStyle=1" parent="1" vertex="1">
          <mxGeometry x="160" y="390.80999999999995" width="30" height="20" as="geometry" />
        </mxCell>
        <mxCell id="aFEut-Nw3Kqnz-RKJ25N-19" value="" style="rounded=0;whiteSpace=wrap;html=1;fillColor=#fff2cc;strokeColor=#d6b656;fillStyle=zigzag-line;fontStyle=1" parent="1" vertex="1">
          <mxGeometry x="230" y="391.05999999999995" width="70" height="20" as="geometry" />
        </mxCell>
        <mxCell id="aFEut-Nw3Kqnz-RKJ25N-20" value="" style="rounded=0;whiteSpace=wrap;html=1;fillColor=#fff2cc;strokeColor=#d6b656;fillStyle=zigzag-line;fontStyle=1" parent="1" vertex="1">
          <mxGeometry x="360" y="391.05999999999995" width="20" height="20" as="geometry" />
        </mxCell>
        <mxCell id="aFEut-Nw3Kqnz-RKJ25N-21" value="" style="rounded=0;whiteSpace=wrap;html=1;fillColor=#dae8fc;strokeColor=#6c8ebf;fillStyle=zigzag-line;fontStyle=1" parent="1" vertex="1">
          <mxGeometry x="330" y="450.80999999999995" width="67.5" height="20" as="geometry" />
        </mxCell>
        <mxCell id="aFEut-Nw3Kqnz-RKJ25N-22" value="" style="rounded=0;whiteSpace=wrap;html=1;fillColor=#dae8fc;strokeColor=#6c8ebf;fillStyle=zigzag-line;fontStyle=1" parent="1" vertex="1">
          <mxGeometry x="427.5" y="450.80999999999995" width="20" height="20" as="geometry" />
        </mxCell>
        <mxCell id="aFEut-Nw3Kqnz-RKJ25N-24" value="" style="rounded=0;whiteSpace=wrap;html=1;fillColor=#dae8fc;strokeColor=#6c8ebf;fillStyle=zigzag-line;fontStyle=1" parent="1" vertex="1">
          <mxGeometry x="507.32" y="450.80999999999995" width="30" height="20" as="geometry" />
        </mxCell>
        <mxCell id="aFEut-Nw3Kqnz-RKJ25N-27" value="" style="shape=card;whiteSpace=wrap;html=1;size=160;rotation=90;strokeColor=none;fillColor=#B5B5B5;fontStyle=1" parent="1" vertex="1">
          <mxGeometry x="450.14" y="277" width="13.88" height="137.87" as="geometry" />
        </mxCell>
        <mxCell id="aFEut-Nw3Kqnz-RKJ25N-29" style="edgeStyle=orthogonalEdgeStyle;rounded=0;orthogonalLoop=1;jettySize=auto;html=1;exitX=0;exitY=1;exitDx=0;exitDy=0;entryX=0;entryY=0.5;entryDx=0;entryDy=0;fontStyle=1" parent="1" target="aFEut-Nw3Kqnz-RKJ25N-7" edge="1">
          <mxGeometry relative="1" as="geometry">
            <Array as="points">
              <mxPoint x="35" y="401.05999999999995" />
            </Array>
            <mxPoint x="200" y="353.05999999999995" as="sourcePoint" />
          </mxGeometry>
        </mxCell>
        <mxCell id="aFEut-Nw3Kqnz-RKJ25N-32" value="&lt;font style=&quot;font-size: 15px;&quot;&gt;100%&lt;br&gt;&lt;br&gt;0%&amp;nbsp; &amp;nbsp;&lt;/font&gt;" style="text;html=1;strokeColor=none;fillColor=none;align=center;verticalAlign=middle;whiteSpace=wrap;rounded=0;fontStyle=1" parent="1" vertex="1">
          <mxGeometry x="600" y="323.12" width="60" height="30" as="geometry" />
        </mxCell>
        <mxCell id="aFEut-Nw3Kqnz-RKJ25N-33" value="&lt;font style=&quot;font-size: 15px;&quot;&gt;GPU Utilization&lt;/font&gt;" style="text;html=1;strokeColor=none;fillColor=none;align=center;verticalAlign=middle;whiteSpace=wrap;rounded=0;fontStyle=1" parent="1" vertex="1">
          <mxGeometry x="-60" y="323.05999999999995" width="80" height="30" as="geometry" />
        </mxCell>
        <mxCell id="aFEut-Nw3Kqnz-RKJ25N-34" value="&lt;span style=&quot;font-size: 15px;&quot;&gt;Scheduling Based on Inaccurate Prediction&lt;/span&gt;" style="text;html=1;strokeColor=none;fillColor=none;align=center;verticalAlign=middle;whiteSpace=wrap;rounded=0;rotation=0;fontStyle=1" parent="1" vertex="1">
          <mxGeometry x="-230" y="447.80999999999995" width="140" height="30" as="geometry" />
        </mxCell>
        <mxCell id="aFEut-Nw3Kqnz-RKJ25N-46" value="&lt;font style=&quot;font-size: 15px;&quot;&gt;Model C&lt;br&gt;(Unseen)&lt;br&gt;&lt;/font&gt;" style="text;html=1;strokeColor=none;fillColor=none;align=center;verticalAlign=middle;whiteSpace=wrap;rounded=0;fontStyle=1" parent="1" vertex="1">
          <mxGeometry x="-80" y="510.80999999999995" width="100" height="30" as="geometry" />
        </mxCell>
        <mxCell id="aFEut-Nw3Kqnz-RKJ25N-47" value="" style="rounded=0;whiteSpace=wrap;html=1;dashed=1;fontStyle=1" parent="1" vertex="1">
          <mxGeometry x="30" y="508.80999999999995" width="450" height="34" as="geometry" />
        </mxCell>
        <mxCell id="aFEut-Nw3Kqnz-RKJ25N-48" value="&lt;font style=&quot;font-size: 15px;&quot;&gt;C1&lt;/font&gt;" style="rounded=0;whiteSpace=wrap;html=1;fillColor=#f8cecc;strokeColor=#b85450;fontStyle=1" parent="1" vertex="1">
          <mxGeometry x="50" y="516.94" width="30" height="20" as="geometry" />
        </mxCell>
        <mxCell id="aFEut-Nw3Kqnz-RKJ25N-49" value="&lt;font style=&quot;font-size: 15px;&quot;&gt;C2&lt;/font&gt;" style="rounded=0;whiteSpace=wrap;html=1;fillColor=#f8cecc;strokeColor=#b85450;fontStyle=1" parent="1" vertex="1">
          <mxGeometry x="100" y="516.94" width="30" height="20" as="geometry" />
        </mxCell>
        <mxCell id="aFEut-Nw3Kqnz-RKJ25N-50" value="&lt;font style=&quot;font-size: 15px;&quot;&gt;C3&lt;/font&gt;" style="rounded=0;whiteSpace=wrap;html=1;fillColor=#f8cecc;strokeColor=#b85450;fontStyle=1" parent="1" vertex="1">
          <mxGeometry x="150" y="516.94" width="60" height="20" as="geometry" />
        </mxCell>
        <mxCell id="aFEut-Nw3Kqnz-RKJ25N-52" value="" style="rounded=0;whiteSpace=wrap;html=1;fillColor=#f8cecc;strokeColor=#b85450;fillStyle=zigzag-line;fontStyle=1" parent="1" vertex="1">
          <mxGeometry x="80" y="516.94" width="20" height="20" as="geometry" />
        </mxCell>
        <mxCell id="aFEut-Nw3Kqnz-RKJ25N-53" value="" style="rounded=0;whiteSpace=wrap;html=1;fillColor=#f8cecc;strokeColor=#b85450;fillStyle=zigzag-line;fontStyle=1" parent="1" vertex="1">
          <mxGeometry x="130" y="516.94" width="20" height="20" as="geometry" />
        </mxCell>
        <mxCell id="aFEut-Nw3Kqnz-RKJ25N-55" value="" style="rounded=0;whiteSpace=wrap;html=1;fillColor=#f8cecc;strokeColor=#b85450;fillStyle=zigzag-line;fontStyle=1" parent="1" vertex="1">
          <mxGeometry x="210" y="516.94" width="70" height="20" as="geometry" />
        </mxCell>
        <mxCell id="aFEut-Nw3Kqnz-RKJ25N-28" style="edgeStyle=orthogonalEdgeStyle;rounded=0;orthogonalLoop=1;jettySize=auto;html=1;exitX=0;exitY=1;exitDx=0;exitDy=0;entryX=0;entryY=0.5;entryDx=0;entryDy=0;fontStyle=1" parent="1" target="aFEut-Nw3Kqnz-RKJ25N-48" edge="1">
          <mxGeometry relative="1" as="geometry">
            <Array as="points">
              <mxPoint x="35" y="526.81" />
            </Array>
            <mxPoint x="200" y="353.05999999999995" as="sourcePoint" />
          </mxGeometry>
        </mxCell>
        <mxCell id="aFEut-Nw3Kqnz-RKJ25N-64" value="" style="rounded=0;whiteSpace=wrap;html=1;dashed=1;fontStyle=1" parent="1" vertex="1">
          <mxGeometry x="30" y="260" width="450" height="34" as="geometry" />
        </mxCell>
        <mxCell id="aFEut-Nw3Kqnz-RKJ25N-63" value="&lt;font style=&quot;font-size: 15px;&quot;&gt;Model C&lt;br&gt;(Unseen)&lt;br&gt;&lt;/font&gt;" style="text;html=1;strokeColor=none;fillColor=none;align=center;verticalAlign=middle;whiteSpace=wrap;rounded=0;fontStyle=1" parent="1" vertex="1">
          <mxGeometry x="-80" y="262" width="100" height="30" as="geometry" />
        </mxCell>
        <mxCell id="aFEut-Nw3Kqnz-RKJ25N-65" value="&lt;font style=&quot;font-size: 15px;&quot;&gt;C1&lt;/font&gt;" style="rounded=0;whiteSpace=wrap;html=1;fillColor=#f8cecc;strokeColor=#b85450;fontStyle=1" parent="1" vertex="1">
          <mxGeometry x="50" y="268.13" width="50" height="20" as="geometry" />
        </mxCell>
        <mxCell id="aFEut-Nw3Kqnz-RKJ25N-66" value="&lt;font style=&quot;font-size: 15px;&quot;&gt;C2&lt;/font&gt;" style="rounded=0;whiteSpace=wrap;html=1;fillColor=#f8cecc;strokeColor=#b85450;fontStyle=1" parent="1" vertex="1">
          <mxGeometry x="150" y="268.13" width="40" height="20" as="geometry" />
        </mxCell>
        <mxCell id="aFEut-Nw3Kqnz-RKJ25N-67" value="&lt;font style=&quot;font-size: 15px;&quot;&gt;C3&lt;/font&gt;" style="rounded=0;whiteSpace=wrap;html=1;fillColor=#f8cecc;strokeColor=#b85450;fontStyle=1" parent="1" vertex="1">
          <mxGeometry x="250" y="268.13" width="60" height="20" as="geometry" />
        </mxCell>
        <mxCell id="aFEut-Nw3Kqnz-RKJ25N-68" value="" style="rounded=0;whiteSpace=wrap;html=1;fillColor=#f8cecc;strokeColor=#b85450;fillStyle=zigzag-line;fontStyle=1" parent="1" vertex="1">
          <mxGeometry x="100" y="268.13" width="50" height="20" as="geometry" />
        </mxCell>
        <mxCell id="aFEut-Nw3Kqnz-RKJ25N-69" value="" style="rounded=0;whiteSpace=wrap;html=1;fillColor=#f8cecc;strokeColor=#b85450;fillStyle=zigzag-line;fontStyle=1" parent="1" vertex="1">
          <mxGeometry x="190" y="268.13" width="60" height="20" as="geometry" />
        </mxCell>
        <mxCell id="aFEut-Nw3Kqnz-RKJ25N-70" value="" style="rounded=0;whiteSpace=wrap;html=1;fillColor=#f8cecc;strokeColor=#b85450;fillStyle=zigzag-line;fontStyle=1" parent="1" vertex="1">
          <mxGeometry x="310" y="268.13" width="90" height="20" as="geometry" />
        </mxCell>
        <mxCell id="aFEut-Nw3Kqnz-RKJ25N-71" style="edgeStyle=orthogonalEdgeStyle;rounded=0;orthogonalLoop=1;jettySize=auto;html=1;exitX=0;exitY=1;exitDx=0;exitDy=0;entryX=0;entryY=0.5;entryDx=0;entryDy=0;fontStyle=1" parent="1" target="aFEut-Nw3Kqnz-RKJ25N-65" edge="1">
          <mxGeometry relative="1" as="geometry">
            <Array as="points">
              <mxPoint x="35" y="278" />
            </Array>
            <mxPoint x="35" y="104.25" as="sourcePoint" />
            <mxPoint x="50" y="213.25" as="targetPoint" />
          </mxGeometry>
        </mxCell>
        <mxCell id="aFEut-Nw3Kqnz-RKJ25N-72" value="" style="rounded=0;whiteSpace=wrap;html=1;fillColor=#fff2cc;strokeColor=#d6b656;fillStyle=zigzag-line;fontStyle=1" parent="1" vertex="1">
          <mxGeometry x="410" y="391.05999999999995" width="20" height="20" as="geometry" />
        </mxCell>
        <mxCell id="aFEut-Nw3Kqnz-RKJ25N-74" value="" style="rounded=0;whiteSpace=wrap;html=1;strokeColor=none;fillColor=#B5B5B5;fontStyle=1" parent="1" vertex="1">
          <mxGeometry x="30" y="329.80999999999995" width="290" height="22.31" as="geometry" />
        </mxCell>
        <mxCell id="aFEut-Nw3Kqnz-RKJ25N-73" value="" style="rounded=0;whiteSpace=wrap;html=1;fillColor=#fff2cc;strokeColor=#d6b656;fillStyle=zigzag-line;fontStyle=1" parent="1" vertex="1">
          <mxGeometry x="460" y="391.05999999999995" width="40" height="20" as="geometry" />
        </mxCell>
        <mxCell id="aFEut-Nw3Kqnz-RKJ25N-75" value="" style="rounded=0;whiteSpace=wrap;html=1;strokeColor=none;fillColor=#B5B5B5;fontStyle=1" parent="1" vertex="1">
          <mxGeometry x="290" y="329.80999999999995" width="213" height="22.31" as="geometry" />
        </mxCell>
        <mxCell id="aFEut-Nw3Kqnz-RKJ25N-76" value="" style="triangle;whiteSpace=wrap;html=1;rotation=135;fillColor=#b5b5b5;strokeColor=none;" parent="1" vertex="1">
          <mxGeometry x="500" y="330.80999999999995" width="12.21" height="24.37" as="geometry" />
        </mxCell>
        <mxCell id="aFEut-Nw3Kqnz-RKJ25N-31" value="&lt;font style=&quot;font-size: 15px;&quot;&gt;High Utilization&lt;/font&gt;" style="text;html=1;strokeColor=none;fillColor=none;align=center;verticalAlign=middle;whiteSpace=wrap;rounded=0;fontStyle=1" parent="1" vertex="1">
          <mxGeometry x="40" y="323.1200000000001" width="60" height="30" as="geometry" />
        </mxCell>
        <mxCell id="aFEut-Nw3Kqnz-RKJ25N-79" value="" style="rounded=0;whiteSpace=wrap;html=1;fontStyle=1" parent="1" vertex="1">
          <mxGeometry x="-80" y="628.94" width="570" height="184.06" as="geometry" />
        </mxCell>
        <mxCell id="aFEut-Nw3Kqnz-RKJ25N-80" value="" style="rounded=0;whiteSpace=wrap;html=1;strokeColor=default;fontStyle=1;fillColor=none;" parent="1" vertex="1">
          <mxGeometry x="30" y="581.1899999999999" width="460" height="30" as="geometry" />
        </mxCell>
        <mxCell id="aFEut-Nw3Kqnz-RKJ25N-81" value="&lt;font style=&quot;font-size: 15px;&quot;&gt;Model A&lt;/font&gt;" style="text;html=1;strokeColor=none;fillColor=none;align=center;verticalAlign=middle;whiteSpace=wrap;rounded=0;fontStyle=1" parent="1" vertex="1">
          <mxGeometry x="-80" y="644.1899999999999" width="100" height="30" as="geometry" />
        </mxCell>
        <mxCell id="aFEut-Nw3Kqnz-RKJ25N-82" value="&lt;font style=&quot;font-size: 15px;&quot;&gt;Model B&lt;/font&gt;" style="text;html=1;strokeColor=none;fillColor=none;align=center;verticalAlign=middle;whiteSpace=wrap;rounded=0;fontStyle=1" parent="1" vertex="1">
          <mxGeometry x="-80" y="703.9399999999999" width="100" height="30" as="geometry" />
        </mxCell>
        <mxCell id="aFEut-Nw3Kqnz-RKJ25N-83" value="" style="rounded=0;whiteSpace=wrap;html=1;dashed=1;fontStyle=1" parent="1" vertex="1">
          <mxGeometry x="30" y="701.9399999999999" width="450" height="34" as="geometry" />
        </mxCell>
        <mxCell id="aFEut-Nw3Kqnz-RKJ25N-84" value="" style="rounded=0;whiteSpace=wrap;html=1;dashed=1;fontStyle=1" parent="1" vertex="1">
          <mxGeometry x="35" y="642.1899999999999" width="445" height="34" as="geometry" />
        </mxCell>
        <mxCell id="aFEut-Nw3Kqnz-RKJ25N-85" value="&lt;font style=&quot;font-size: 15px;&quot;&gt;A1&lt;/font&gt;" style="rounded=0;whiteSpace=wrap;html=1;fillColor=#fff2cc;strokeColor=#d6b656;fontStyle=1" parent="1" vertex="1">
          <mxGeometry x="50" y="648.9399999999999" width="40" height="20" as="geometry" />
        </mxCell>
        <mxCell id="aFEut-Nw3Kqnz-RKJ25N-86" value="&lt;font style=&quot;font-size: 15px;&quot;&gt;A2&lt;/font&gt;" style="rounded=0;whiteSpace=wrap;html=1;fillColor=#fff2cc;strokeColor=#d6b656;fontStyle=1" parent="1" vertex="1">
          <mxGeometry x="120" y="648.9399999999999" width="40" height="20" as="geometry" />
        </mxCell>
        <mxCell id="aFEut-Nw3Kqnz-RKJ25N-87" value="&lt;font style=&quot;font-size: 15px;&quot;&gt;A3&lt;/font&gt;" style="rounded=0;whiteSpace=wrap;html=1;fillColor=#fff2cc;strokeColor=#d6b656;fontStyle=1" parent="1" vertex="1">
          <mxGeometry x="180" y="648.9399999999999" width="40" height="20" as="geometry" />
        </mxCell>
        <mxCell id="aFEut-Nw3Kqnz-RKJ25N-88" value="&lt;font style=&quot;font-size: 15px;&quot;&gt;A4&lt;/font&gt;" style="rounded=0;whiteSpace=wrap;html=1;fillColor=#fff2cc;strokeColor=#d6b656;fontStyle=1" parent="1" vertex="1">
          <mxGeometry x="260" y="649.4399999999999" width="60" height="20" as="geometry" />
        </mxCell>
        <mxCell id="aFEut-Nw3Kqnz-RKJ25N-89" value="&lt;font style=&quot;font-size: 15px;&quot;&gt;B1&lt;/font&gt;" style="rounded=0;whiteSpace=wrap;html=1;fillColor=#dae8fc;strokeColor=#6c8ebf;fontStyle=1" parent="1" vertex="1">
          <mxGeometry x="50" y="708.9399999999999" width="30" height="20" as="geometry" />
        </mxCell>
        <mxCell id="aFEut-Nw3Kqnz-RKJ25N-90" value="&lt;font style=&quot;font-size: 15px;&quot;&gt;B2&lt;/font&gt;" style="rounded=0;whiteSpace=wrap;html=1;fillColor=#dae8fc;strokeColor=#6c8ebf;fontStyle=1" parent="1" vertex="1">
          <mxGeometry x="90" y="708.9399999999999" width="30" height="20" as="geometry" />
        </mxCell>
        <mxCell id="aFEut-Nw3Kqnz-RKJ25N-91" value="&lt;font style=&quot;font-size: 15px;&quot;&gt;B3&lt;/font&gt;" style="rounded=0;whiteSpace=wrap;html=1;fillColor=#dae8fc;strokeColor=#6c8ebf;fontStyle=1" parent="1" vertex="1">
          <mxGeometry x="130" y="708.9399999999999" width="60" height="20" as="geometry" />
        </mxCell>
        <mxCell id="aFEut-Nw3Kqnz-RKJ25N-92" value="&lt;font style=&quot;font-size: 15px;&quot;&gt;B4&lt;/font&gt;" style="rounded=0;whiteSpace=wrap;html=1;fillColor=#dae8fc;strokeColor=#6c8ebf;fontStyle=1" parent="1" vertex="1">
          <mxGeometry x="200" y="708.9399999999999" width="50" height="20" as="geometry" />
        </mxCell>
        <mxCell id="aFEut-Nw3Kqnz-RKJ25N-93" value="&lt;font style=&quot;font-size: 15px;&quot;&gt;A5&lt;/font&gt;" style="rounded=0;whiteSpace=wrap;html=1;fillColor=#fff2cc;strokeColor=#d6b656;fontStyle=1" parent="1" vertex="1">
          <mxGeometry x="330" y="648.9399999999999" width="30" height="20" as="geometry" />
        </mxCell>
        <mxCell id="aFEut-Nw3Kqnz-RKJ25N-94" value="&lt;font style=&quot;font-size: 15px;&quot;&gt;A6&lt;/font&gt;" style="rounded=0;whiteSpace=wrap;html=1;fillColor=#fff2cc;strokeColor=#d6b656;fontStyle=1" parent="1" vertex="1">
          <mxGeometry x="370" y="649.1899999999999" width="30" height="20" as="geometry" />
        </mxCell>
        <mxCell id="aFEut-Nw3Kqnz-RKJ25N-95" value="" style="rounded=0;whiteSpace=wrap;html=1;fillColor=#fff2cc;strokeColor=#d6b656;shadow=0;glass=0;fillStyle=zigzag-line;fontStyle=1" parent="1" vertex="1">
          <mxGeometry x="90" y="649.1899999999999" width="30" height="20" as="geometry" />
        </mxCell>
        <mxCell id="aFEut-Nw3Kqnz-RKJ25N-96" value="" style="rounded=0;whiteSpace=wrap;html=1;fillColor=#fff2cc;strokeColor=#d6b656;fillStyle=zigzag-line;fontStyle=1" parent="1" vertex="1">
          <mxGeometry x="160" y="648.9399999999999" width="20" height="20" as="geometry" />
        </mxCell>
        <mxCell id="aFEut-Nw3Kqnz-RKJ25N-97" value="" style="rounded=0;whiteSpace=wrap;html=1;fillColor=#fff2cc;strokeColor=#d6b656;fillStyle=zigzag-line;fontStyle=1" parent="1" vertex="1">
          <mxGeometry x="219.91" y="649.4399999999999" width="40.09" height="20" as="geometry" />
        </mxCell>
        <mxCell id="aFEut-Nw3Kqnz-RKJ25N-98" value="" style="rounded=0;whiteSpace=wrap;html=1;fillColor=#fff2cc;strokeColor=#d6b656;fillStyle=zigzag-line;fontStyle=1" parent="1" vertex="1">
          <mxGeometry x="320" y="649.1899999999999" width="10" height="20" as="geometry" />
        </mxCell>
        <mxCell id="aFEut-Nw3Kqnz-RKJ25N-99" value="" style="rounded=0;whiteSpace=wrap;html=1;fillColor=#dae8fc;strokeColor=#6c8ebf;fillStyle=zigzag-line;fontStyle=1" parent="1" vertex="1">
          <mxGeometry x="80" y="708.9399999999999" width="10" height="20" as="geometry" />
        </mxCell>
        <mxCell id="aFEut-Nw3Kqnz-RKJ25N-100" value="" style="rounded=0;whiteSpace=wrap;html=1;fillColor=#dae8fc;strokeColor=#6c8ebf;fillStyle=zigzag-line;fontStyle=1" parent="1" vertex="1">
          <mxGeometry x="119.82" y="708.9399999999999" width="10.18" height="20" as="geometry" />
        </mxCell>
        <mxCell id="aFEut-Nw3Kqnz-RKJ25N-101" value="" style="rounded=0;whiteSpace=wrap;html=1;fillColor=#dae8fc;strokeColor=#6c8ebf;fillStyle=zigzag-line;fontStyle=1" parent="1" vertex="1">
          <mxGeometry x="250" y="708.9399999999999" width="10" height="20" as="geometry" />
        </mxCell>
        <mxCell id="aFEut-Nw3Kqnz-RKJ25N-102" value="" style="rounded=0;whiteSpace=wrap;html=1;fillColor=#dae8fc;strokeColor=#6c8ebf;fillStyle=zigzag-line;fontStyle=1" parent="1" vertex="1">
          <mxGeometry x="190" y="708.9399999999999" width="10" height="20" as="geometry" />
        </mxCell>
        <mxCell id="aFEut-Nw3Kqnz-RKJ25N-106" style="edgeStyle=orthogonalEdgeStyle;rounded=0;orthogonalLoop=1;jettySize=auto;html=1;exitX=0;exitY=1;exitDx=0;exitDy=0;entryX=0;entryY=0.5;entryDx=0;entryDy=0;fontStyle=1" parent="1" target="aFEut-Nw3Kqnz-RKJ25N-85" edge="1">
          <mxGeometry relative="1" as="geometry">
            <Array as="points">
              <mxPoint x="35" y="659.1899999999999" />
            </Array>
            <mxPoint x="200" y="611.1899999999999" as="sourcePoint" />
          </mxGeometry>
        </mxCell>
        <mxCell id="aFEut-Nw3Kqnz-RKJ25N-108" value="&lt;font style=&quot;font-size: 15px;&quot;&gt;100%&lt;br&gt;&lt;br&gt;0%&amp;nbsp; &amp;nbsp;&lt;/font&gt;" style="text;html=1;strokeColor=none;fillColor=none;align=center;verticalAlign=middle;whiteSpace=wrap;rounded=0;fontStyle=1" parent="1" vertex="1">
          <mxGeometry x="492.32" y="580.25" width="60" height="30" as="geometry" />
        </mxCell>
        <mxCell id="aFEut-Nw3Kqnz-RKJ25N-109" value="&lt;font style=&quot;font-size: 15px;&quot;&gt;GPU Utilization&lt;/font&gt;" style="text;html=1;strokeColor=none;fillColor=none;align=center;verticalAlign=middle;whiteSpace=wrap;rounded=0;fontStyle=1" parent="1" vertex="1">
          <mxGeometry x="-60" y="581.1899999999999" width="80" height="30" as="geometry" />
        </mxCell>
        <mxCell id="aFEut-Nw3Kqnz-RKJ25N-110" value="&lt;span style=&quot;font-size: 15px;&quot;&gt;Scheduling Based on Accurate Prediction&lt;/span&gt;" style="text;html=1;strokeColor=none;fillColor=none;align=center;verticalAlign=middle;whiteSpace=wrap;rounded=0;rotation=0;fontStyle=1" parent="1" vertex="1">
          <mxGeometry x="-230" y="715.9399999999999" width="140" height="30" as="geometry" />
        </mxCell>
        <mxCell id="aFEut-Nw3Kqnz-RKJ25N-111" value="&lt;font style=&quot;font-size: 15px;&quot;&gt;Model C&lt;br&gt;(Unseen)&lt;br&gt;&lt;/font&gt;" style="text;html=1;strokeColor=none;fillColor=none;align=center;verticalAlign=middle;whiteSpace=wrap;rounded=0;fontStyle=1" parent="1" vertex="1">
          <mxGeometry x="-78" y="769.9399999999999" width="100" height="30" as="geometry" />
        </mxCell>
        <mxCell id="aFEut-Nw3Kqnz-RKJ25N-112" value="" style="rounded=0;whiteSpace=wrap;html=1;dashed=1;fontStyle=1" parent="1" vertex="1">
          <mxGeometry x="30" y="766.9399999999999" width="450" height="34" as="geometry" />
        </mxCell>
        <mxCell id="aFEut-Nw3Kqnz-RKJ25N-113" value="&lt;font style=&quot;font-size: 15px;&quot;&gt;C1&lt;/font&gt;" style="rounded=0;whiteSpace=wrap;html=1;fillColor=#f8cecc;strokeColor=#b85450;fontStyle=1" parent="1" vertex="1">
          <mxGeometry x="263.75" y="773.94" width="30" height="20" as="geometry" />
        </mxCell>
        <mxCell id="aFEut-Nw3Kqnz-RKJ25N-114" value="&lt;font style=&quot;font-size: 15px;&quot;&gt;C2&lt;/font&gt;" style="rounded=0;whiteSpace=wrap;html=1;fillColor=#f8cecc;strokeColor=#b85450;fontStyle=1" parent="1" vertex="1">
          <mxGeometry x="299.75" y="773.94" width="30" height="20" as="geometry" />
        </mxCell>
        <mxCell id="aFEut-Nw3Kqnz-RKJ25N-115" value="&lt;font style=&quot;font-size: 15px;&quot;&gt;C3&lt;/font&gt;" style="rounded=0;whiteSpace=wrap;html=1;fillColor=#f8cecc;strokeColor=#b85450;fontStyle=1" parent="1" vertex="1">
          <mxGeometry x="339.75" y="773.94" width="60" height="20" as="geometry" />
        </mxCell>
        <mxCell id="aFEut-Nw3Kqnz-RKJ25N-116" value="" style="rounded=0;whiteSpace=wrap;html=1;fillColor=#f8cecc;strokeColor=#b85450;fillStyle=zigzag-line;fontStyle=1" parent="1" vertex="1">
          <mxGeometry x="293.75" y="773.9399999999999" width="6.25" height="20" as="geometry" />
        </mxCell>
        <mxCell id="aFEut-Nw3Kqnz-RKJ25N-117" value="" style="rounded=0;whiteSpace=wrap;html=1;fillColor=#f8cecc;strokeColor=#b85450;fillStyle=zigzag-line;fontStyle=1" parent="1" vertex="1">
          <mxGeometry x="329.75" y="773.9399999999999" width="10.25" height="20" as="geometry" />
        </mxCell>
        <mxCell id="aFEut-Nw3Kqnz-RKJ25N-118" value="" style="rounded=0;whiteSpace=wrap;html=1;fillColor=#f8cecc;strokeColor=#b85450;fillStyle=zigzag-line;fontStyle=1" parent="1" vertex="1">
          <mxGeometry x="398.82" y="773.9399999999999" width="21.18" height="20" as="geometry" />
        </mxCell>
        <mxCell id="aFEut-Nw3Kqnz-RKJ25N-119" style="edgeStyle=orthogonalEdgeStyle;rounded=0;orthogonalLoop=1;jettySize=auto;html=1;exitX=0.038;exitY=1.02;exitDx=0;exitDy=0;entryX=0;entryY=0.5;entryDx=0;entryDy=0;fontStyle=1;exitPerimeter=0;" parent="1" source="aFEut-Nw3Kqnz-RKJ25N-121" target="aFEut-Nw3Kqnz-RKJ25N-89" edge="1">
          <mxGeometry relative="1" as="geometry">
            <Array as="points">
              <mxPoint x="35" y="611.13" />
              <mxPoint x="35" y="719.13" />
            </Array>
          </mxGeometry>
        </mxCell>
        <mxCell id="aFEut-Nw3Kqnz-RKJ25N-120" value="" style="rounded=0;whiteSpace=wrap;html=1;fillColor=#fff2cc;strokeColor=#d6b656;fillStyle=zigzag-line;fontStyle=1" parent="1" vertex="1">
          <mxGeometry x="360" y="649.1899999999999" width="10" height="20" as="geometry" />
        </mxCell>
        <mxCell id="aFEut-Nw3Kqnz-RKJ25N-121" value="" style="rounded=0;whiteSpace=wrap;html=1;strokeColor=none;fillColor=#B5B5B5;fontStyle=1" parent="1" vertex="1">
          <mxGeometry x="30" y="587.9399999999999" width="390" height="22.31" as="geometry" />
        </mxCell>
        <mxCell id="aFEut-Nw3Kqnz-RKJ25N-122" value="" style="rounded=0;whiteSpace=wrap;html=1;fillColor=#fff2cc;strokeColor=#d6b656;fillStyle=zigzag-line;fontStyle=1" parent="1" vertex="1">
          <mxGeometry x="400" y="649.1899999999999" width="20" height="20" as="geometry" />
        </mxCell>
        <mxCell id="aFEut-Nw3Kqnz-RKJ25N-125" value="&lt;font style=&quot;font-size: 15px;&quot;&gt;High GPU Utilization&lt;/font&gt;" style="text;html=1;strokeColor=none;fillColor=none;align=center;verticalAlign=middle;whiteSpace=wrap;rounded=0;fontStyle=1" parent="1" vertex="1">
          <mxGeometry x="40" y="581.25" width="60" height="30" as="geometry" />
        </mxCell>
        <mxCell id="aFEut-Nw3Kqnz-RKJ25N-127" value="" style="rounded=0;whiteSpace=wrap;html=1;strokeColor=none;fillColor=#B5B5B5;fontStyle=1" parent="1" vertex="1">
          <mxGeometry x="510" y="339.78" width="90" height="12.31" as="geometry" />
        </mxCell>
        <mxCell id="aFEut-Nw3Kqnz-RKJ25N-129" value="&lt;font style=&quot;font-size: 15px;&quot;&gt;Low Utilization&lt;/font&gt;" style="text;html=1;strokeColor=none;fillColor=none;align=center;verticalAlign=middle;whiteSpace=wrap;rounded=0;fontStyle=1" parent="1" vertex="1">
          <mxGeometry x="512.21" y="323.1200000000001" width="60" height="30" as="geometry" />
        </mxCell>
        <mxCell id="aFEut-Nw3Kqnz-RKJ25N-135" style="edgeStyle=orthogonalEdgeStyle;rounded=0;orthogonalLoop=1;jettySize=auto;html=1;entryX=0;entryY=0.5;entryDx=0;entryDy=0;fontStyle=1;" parent="1" target="aFEut-Nw3Kqnz-RKJ25N-11" edge="1">
          <mxGeometry relative="1" as="geometry">
            <Array as="points">
              <mxPoint x="280" y="353.80999999999995" />
              <mxPoint x="280" y="460.80999999999995" />
            </Array>
            <mxPoint x="280" y="354" as="sourcePoint" />
            <mxPoint x="60" y="536.81" as="targetPoint" />
          </mxGeometry>
        </mxCell>
        <mxCell id="aFEut-Nw3Kqnz-RKJ25N-136" style="edgeStyle=orthogonalEdgeStyle;rounded=0;orthogonalLoop=1;jettySize=auto;html=1;exitX=0.5;exitY=1;exitDx=0;exitDy=0;entryX=0;entryY=0.5;entryDx=0;entryDy=0;fontStyle=1;" parent="1" source="aFEut-Nw3Kqnz-RKJ25N-80" target="aFEut-Nw3Kqnz-RKJ25N-113" edge="1">
          <mxGeometry relative="1" as="geometry">
            <Array as="points">
              <mxPoint x="250" y="611" />
              <mxPoint x="250" y="784" />
            </Array>
            <mxPoint x="55" y="621" as="sourcePoint" />
            <mxPoint x="60" y="729" as="targetPoint" />
          </mxGeometry>
        </mxCell>
        <mxCell id="1enAks9yBNtXk0IQrdcj-2" value="A1" style="rounded=0;whiteSpace=wrap;html=1;fillColor=#fff2cc;strokeColor=#d6b656;fontStyle=1" parent="1" vertex="1">
          <mxGeometry x="182" y="9" width="30" height="20" as="geometry" />
        </mxCell>
        <mxCell id="1enAks9yBNtXk0IQrdcj-4" value="B1" style="rounded=0;whiteSpace=wrap;html=1;fillColor=#dae8fc;strokeColor=#6c8ebf;fontStyle=1" parent="1" vertex="1">
          <mxGeometry x="182" y="34.99999999999994" width="30" height="20" as="geometry" />
        </mxCell>
        <mxCell id="1enAks9yBNtXk0IQrdcj-5" value="" style="rounded=0;whiteSpace=wrap;html=1;fillColor=#fff2cc;strokeColor=#d6b656;shadow=0;glass=0;fillStyle=zigzag-line;fontStyle=1" parent="1" vertex="1">
          <mxGeometry x="212.25" y="9" width="30" height="20" as="geometry" />
        </mxCell>
        <mxCell id="1enAks9yBNtXk0IQrdcj-7" value="" style="rounded=0;whiteSpace=wrap;html=1;fillColor=#dae8fc;strokeColor=#6c8ebf;fillStyle=zigzag-line;fontStyle=1" parent="1" vertex="1">
          <mxGeometry x="212.25" y="35" width="30" height="20" as="geometry" />
        </mxCell>
        <mxCell id="1enAks9yBNtXk0IQrdcj-8" value="&lt;font style=&quot;font-size: 15px;&quot;&gt;Resource Contention Overhead&lt;/font&gt;" style="text;html=1;strokeColor=none;fillColor=none;align=center;verticalAlign=middle;whiteSpace=wrap;rounded=0;fontStyle=1" parent="1" vertex="1">
          <mxGeometry x="-6" y="21" width="167.5" height="30" as="geometry" />
        </mxCell>
        <mxCell id="URHiBeIzrlBPaXmU1U8u-1" value="" style="endArrow=none;html=1;rounded=0;strokeWidth=4;strokeColor=#FF3333;" parent="1" edge="1">
          <mxGeometry width="50" height="50" relative="1" as="geometry">
            <mxPoint x="449" y="840" as="sourcePoint" />
            <mxPoint x="449" y="51.94" as="targetPoint" />
          </mxGeometry>
        </mxCell>
        <mxCell id="URHiBeIzrlBPaXmU1U8u-2" value="&lt;font style=&quot;font-size: 15px;&quot;&gt;Deadline&lt;br&gt;&lt;/font&gt;" style="text;html=1;strokeColor=none;fillColor=none;align=center;verticalAlign=middle;whiteSpace=wrap;rounded=0;fontStyle=1" parent="1" vertex="1">
          <mxGeometry x="388" y="23" width="117.75" height="30" as="geometry" />
        </mxCell>
      </root>
    </mxGraphModel>
  </diagram>
</mxfile>
